<mxfile host="app.diagrams.net" modified="2023-04-12T08:09:15.408Z" agent="Mozilla/5.0 (Windows NT 10.0; Win64; x64) AppleWebKit/537.36 (KHTML, like Gecko) Chrome/111.0.0.0 Safari/537.36" version="21.1.6" etag="v1ikuHEGqhP44D87o0ar" type="github">
  <diagram name="Page-1" id="PgPMIjT5EIJKyWOsGxph">
    <mxGraphModel>
      <root>
        <mxCell id="0" />
        <mxCell id="1" parent="0" />
      </root>
    </mxGraphModel>
  </diagram>
</mxfile>
